<?xml version="1.0" encoding="UTF-8"?>
<!DOCTYPE svg PUBLIC "-//W3C//DTD SVG 1.1//EN" "http://www.w3.org/Graphics/SVG/1.1/DTD/svg11.dtd">
<!-- Creator: CorelDRAW X7 -->
<svg xmlns="http://www.w3.org/2000/svg" xml:space="preserve" width="1500px" height="1001px" version="1.1" style="shape-rendering:geometricPrecision; text-rendering:geometricPrecision; image-rendering:optimizeQuality; fill-rule:evenodd; clip-rule:evenodd"
viewBox="0 0 1500 1001"
 xmlns:xlink="http://www.w3.org/1999/xlink">
 <defs>
  <style type="text/css">
   <![CDATA[
    .fil0 {fill:#21317D}
    .fil1 {fill:white}
    .fil4 {fill:#21317D;fill-rule:nonzero}
    .fil3 {fill:url(#id0)}
    .fil2 {fill:url(#id1)}
   ]]>
  </style>
  <radialGradient id="id0" gradientUnits="userSpaceOnUse" gradientTransform="matrix(0.580975 -0 -0 -0.582172 307 548)" cx="732.284" cy="346.253" r="85.5304" fx="732.284" fy="346.253">
   <stop offset="0" style="stop-opacity:1; stop-color:#FFF200"/>
   <stop offset="1" style="stop-opacity:1; stop-color:#FAB20B"/>
  </radialGradient>
  <radialGradient id="id1" gradientUnits="userSpaceOnUse" gradientTransform="matrix(1.01593 -0 -0 -1.01593 -12 -187)" cx="729.284" cy="-92.9001" r="90.2162" fx="729.284" fy="-92.9001">
   <stop offset="0" style="stop-opacity:1; stop-color:#7FD6F7"/>
   <stop offset="0.368627" style="stop-opacity:1; stop-color:#7FD6F7"/>
   <stop offset="1" style="stop-opacity:1; stop-color:#2056AE"/>
  </radialGradient>
 </defs>
 <g id="Layer_x0020_1">
  <metadata id="CorelCorpID_0Corel-Layer"/>
  <g>
   <path id="path14" class="fil0" d="M1362 859c0,0 0,0 0,0 12,-18 33,-53 33,-80 0,-12 -14,-42 -55,-42 -6,0 -13,3 -19,9 -8,-5 -19,-9 -29,-9 -56,0 -95,58 -105,100 -6,8 -12,14 -18,20 1,-5 2,-10 3,-14 7,-8 27,-34 27,-63 0,-7 -2,-14 -5,-19 25,-5 42,-24 44,-45 1,-15 -16,-44 -49,-44 -29,1 -54,22 -54,46 0,8 2,15 7,21 -29,9 -49,57 -57,96 -7,7 -12,13 -17,18 10,-19 22,-44 23,-73 0,-30 -30,-44 -46,-43 -17,1 -36,9 -56,27 -3,-8 -14,-27 -38,-27 -26,0 -46,15 -52,41 -3,1 -6,3 -9,4 -3,-9 -8,-17 -14,-23 10,-2 16,-12 17,-22 1,-17 -27,-54 -53,-57 -12,-2 -57,29 -57,51 0,9 5,15 13,18 0,0 0,1 1,1 -5,4 -8,9 -11,14 -2,0 -4,-1 -6,-1 -11,0 -51,30 -63,71 -5,-8 -10,-15 -15,-23 -23,-34 -44,-66 -28,-94 10,-18 27,-22 38,-22 6,0 12,1 17,3 10,3 14,7 18,10l1 1c3,2 7,6 13,6 5,0 9,-2 12,-6 4,-6 5,-13 4,-20 -2,-11 -17,-29 -36,-41 -18,-10 -39,-15 -63,-15 -49,0 -94,23 -113,59 -18,33 -13,72 16,110 11,15 23,29 34,41 19,22 36,41 36,55 0,1 -1,4 -3,5 -1,1 -7,5 -19,4 -66,-7 -73,-42 -86,-39 -11,2 -17,11 -20,15 -7,11 -7,22 -1,33 23,39 83,52 119,52 50,0 84,-21 94,-59 15,17 32,23 52,23 38,0 67,-21 85,-49 0,0 0,1 0,1 2,45 38,48 43,48 32,0 47,-32 57,-57 3,48 41,57 56,57 22,0 38,-6 61,-27 12,21 32,27 47,27 22,0 42,-10 62,-28 18,22 37,28 57,28 18,0 34,-6 48,-16 0,0 1,0 1,0 8,10 20,16 33,16 36,0 52,-27 52,-44 0,-11 -9,-27 -27,-29l0 0zm-570 -18c0,-9 3,-19 7,-27 2,8 14,18 30,22 -8,12 -19,22 -32,22 -1,0 -1,0 -2,0 -2,-5 -3,-11 -3,-17l0 0zm477 23c0,-1 0,-2 0,-3 0,-12 5,-25 9,-33 3,-4 7,-12 13,-18 -5,19 -9,37 -10,48 -4,4 -8,6 -12,6l0 0 0 0zm0 0l0 0 0 0z"/>
  </g>
  <g>
   <path id="path16" class="fil0" d="M455 737c-6,0 -13,3 -19,9 -8,-5 -19,-9 -29,-9 -56,0 -95,58 -105,100 -6,8 -12,14 -18,20 1,-5 2,-10 3,-14 7,-8 27,-34 27,-63 0,-7 -2,-14 -5,-19 25,-5 44,-24 44,-45 0,-13 -8,-28 -29,-39 20,-4 35,-9 41,-12 10,-7 12,-20 9,-30 -2,-6 -10,-23 -37,-21 -42,2 -179,7 -258,8 -12,0 -20,9 -22,21 -1,11 0,23 15,35 11,8 20,10 33,14 10,2 26,3 46,3 -12,29 -30,69 -46,106 -19,43 -36,81 -40,93 -5,11 -3,25 4,34 14,19 42,28 56,29 21,0 28,-13 33,-24 7,-16 23,-53 41,-96 -2,14 -4,27 -4,36 1,50 41,59 56,59 22,0 42,-10 62,-28 15,22 37,28 57,28 18,0 34,-6 48,-16 0,0 1,0 1,0 8,10 20,16 33,16 36,0 53,-27 52,-44 -1,-22 -21,-29 -27,-29 0,0 0,0 0,0 12,-18 31,-53 33,-80 0,-14 -13,-41 -55,-42l0 0zm-71 127c0,-1 0,-2 0,-3 0,-12 5,-25 9,-33 3,-4 7,-12 13,-18 -5,19 -9,37 -10,48 -4,4 -8,6 -12,6zm-134 -143c0,7 3,13 7,18 -8,2 -15,7 -21,14 5,-11 10,-22 14,-32l0 0 0 0zm0 0l0 0 0 0z"/>
  </g>
  <path id="path18" class="fil1" d="M872 793c17,-1 41,-11 59,-27 2,-1 4,-2 5,-2 4,0 7,3 7,7 0,2 -1,4 -3,6 0,0 -28,26 -69,35 -6,45 -42,93 -94,93 -33,0 -51,-19 -51,-53 0,-46 48,-82 54,-82 3,0 5,2 5,4 0,8 -15,29 -15,53 0,21 8,38 27,38 27,0 46,-28 52,-51l-3 0c-30,0 -51,-19 -51,-40 0,-15 18,-30 34,-30 25,0 42,17 43,49l0 0zm-35 -19c-4,0 -7,3 -7,8 0,7 9,12 22,13 0,-14 -9,-21 -15,-21l0 0z"/>
  <g>
   <path id="path20" class="fil1" d="M1143 784c3,0 7,3 7,6 0,2 -1,4 -3,6 -80,96 -96,109 -129,109 -29,0 -33,-23 -33,-38 0,-30 25,-63 25,-75 0,-2 -1,-3 -5,-3 -11,0 -41,37 -52,61 -10,25 -23,55 -48,55 -12,0 -21,-8 -21,-26 0,-30 16,-38 25,-98 5,-26 23,-37 42,-37 13,0 18,7 18,20 0,12 -4,28 -11,47 24,-32 57,-67 87,-67 15,0 23,8 23,22 0,34 -21,64 -29,83 -3,7 -5,13 -5,18 0,8 4,12 9,12 13,0 42,-27 92,-90 2,-3 5,-5 8,-5l0 0zm0 0l0 0 0 0z"/>
  </g>
  <path id="path22" class="fil1" d="M1245 784c4,0 7,3 7,6 0,2 -1,4 -2,6 -54,76 -87,109 -124,109 -29,0 -33,-23 -33,-38 0,-43 26,-123 60,-123 15,0 23,8 23,22 0,29 -26,57 -26,57 -2,9 -5,24 -5,31 0,12 4,19 10,19 17,0 53,-46 83,-84 2,-3 5,-5 7,-5l0 0zm-98 -71c0,-18 20,-34 42,-34 16,0 26,10 26,22 0,18 -19,33 -41,34 -15,0 -27,-10 -27,-22l0 0z"/>
  <g>
   <path id="path24" class="fil1" d="M1362 866c3,0 4,4 4,7 0,10 -10,32 -39,32 -16,0 -27,-10 -31,-23 -13,14 -30,23 -51,23 -33,0 -48,-19 -48,-53 0,-37 38,-108 95,-108 12,0 24,7 31,14 5,-9 11,-14 17,-14 16,0 32,7 32,20 0,34 -40,87 -40,87 0,15 3,26 13,26 12,0 14,-11 17,-11l0 0zm-69 -8c0,-13 9,-51 20,-79 -5,-3 -10,-4 -15,-4 -17,0 -32,16 -41,32 -6,10 -11,26 -11,40 0,13 6,24 22,24 9,0 18,-5 25,-13l0 0 0 0zm0 0l0 0 0 0z"/>
  </g>
  <g>
   <path id="path26" class="fil1" d="M360 784c4,0 7,3 7,6 0,2 -1,4 -2,6 -54,76 -87,109 -124,109 -29,0 -34,-23 -34,-38 0,-43 27,-123 61,-123 15,0 23,8 23,22 0,29 -26,57 -26,57 -2,9 -5,24 -5,31 0,12 4,19 10,19 17,0 53,-46 83,-84 2,-3 5,-5 7,-5zm-98 -71c0,-18 20,-34 42,-34 16,0 26,10 26,22 0,18 -19,33 -41,34 -15,0 -27,-10 -27,-22l0 0 0 0zm0 0l0 0 0 0z"/>
  </g>
  <path id="path28" class="fil1" d="M477 866c3,0 4,4 4,7 0,10 -10,32 -40,32 -15,0 -26,-10 -30,-23 -13,14 -30,23 -52,23 -32,0 -47,-19 -47,-53 0,-37 38,-108 95,-108 12,0 24,7 31,14 5,-9 11,-14 17,-14 16,0 32,7 32,20 0,34 -40,87 -40,87 0,15 3,26 13,26 12,0 13,-11 17,-11l0 0zm-69 -8c0,-13 8,-51 20,-79 -6,-3 -10,-4 -15,-4 -17,0 -32,16 -41,32 -6,10 -11,26 -11,40 0,13 6,24 22,24 9,0 18,-5 25,-13l0 0z"/>
  <path id="path30" class="fil1" d="M862 733c-9,0 -17,-17 -25,-17 -9,0 -25,16 -35,16 -3,0 -7,-2 -7,-6 0,-14 37,-39 45,-39 10,0 30,22 30,36 0,4 -3,10 -8,10z"/>
  <g>
   <path id="path32" class="fil1" d="M351 627c-2,-5 -7,-7 -13,-7 -43,4 -182,7 -259,9 -5,0 -9,3 -10,9 0,13 12,23 29,28 15,3 43,3 75,1 -18,48 -88,200 -97,226 -11,30 38,44 51,34 5,-4 8,-9 9,-13 13,-32 110,-251 110,-251 50,-8 94,-18 101,-23 5,-3 7,-8 4,-13l0 0zm0 0l0 0 0 0z"/>
  </g>
  <g>
   <path id="path34" class="fil1" d="M723 672c-20,-7 -53,-6 -70,25 -35,60 68,128 62,184 -12,105 -212,52 -182,4 4,-7 10,-14 17,-5 27,33 87,42 106,28 5,-5 7,-12 7,-17 -3,-30 -39,-57 -72,-102 -16,-21 -36,-58 -16,-96 29,-52 111,-67 160,-39 14,8 24,24 17,33 -1,3 -4,0 -7,-2 -5,-4 -9,-8 -22,-13l0 0zm0 0l0 0 0 0z"/>
  </g>
  <path id="path36" class="fil0" d="M985 366c0,142 -114,256 -256,256 -141,0 -256,-114 -256,-256 0,-141 115,-255 256,-255 142,0 256,114 256,255z"/>
  <path id="path46" class="fil2" d="M500 366c0,127 102,230 229,230l0 0c127,0 230,-103 230,-230l0 0c0,-126 -103,-229 -230,-229 -127,0 -229,103 -229,229l0 0z"/>
  <path id="path54" class="fil3" d="M850 470c-35,13 -87,22 -106,26l0 0c-19,4 -183,-48 -183,-48l0 0 -46 0c33,86 114,148 212,148 107,0 192,-67 221,-162l0 0c-1,0 3,-4 2,-4l0 0c-1,0 -3,-1 -4,-1l0 0c-20,0 -64,29 -96,41l0 0m0 0l0 0 0 0z"/>
  <g>
   <path id="path56" class="fil1" d="M751 570c-35,0 -58,-30 -58,-30l-1 -1 -2 -3c1,-2 -21,20 -54,20 -14,0 -29,-4 -41,-10 -39,-23 -27,-64 -27,-66 0,0 1,-3 2,-5 0,0 -4,1 -4,1 0,0 -3,0 -4,0 -5,0 -27,-1 -39,-12 -9,-8 -17,-21 -16,-36 1,-11 8,-20 17,-25 30,-16 66,-15 81,-16 10,0 38,2 38,2 -23,-44 -9,-77 -9,-78l-6 -2 -4 -2c-14,-5 -21,-24 -20,-36 0,-3 1,-7 2,-13l2 -4 -9 -16c-1,-3 -7,-14 -7,-36 1,-48 21,-80 69,-102 0,0 -1,-1 -4,-4 -2,-2 -5,-7 -5,-7 -3,-6 -9,-32 8,-45 27,-20 47,-3 47,-3 0,0 33,-20 45,19 4,13 -10,28 -10,28 0,0 36,9 57,32 1,-1 29,-16 49,-6 15,8 21,12 27,26 5,13 9,25 2,38 -5,11 -10,16 -24,23l-1 0 0 0c-2,6 -4,15 -4,27l0 1 1 0c18,0 35,17 35,38 0,8 -2,14 -7,23l-2 2 -4 4c20,21 25,42 24,57 0,19 -8,35 -21,46 -2,2 -6,4 -8,6l-11 6 17 -1c0,0 16,1 16,1 10,1 44,2 64,21 4,3 11,18 7,31 -3,10 -9,15 -24,17 -1,0 -2,0 -3,0l-1 0 0 2c0,0 6,19 -9,30 -5,4 -11,9 -27,11 -15,2 -24,-2 -25,-2l-1 0 0 1c0,0 -6,10 -18,14 -1,0 -7,1 -8,1 -13,0 -25,-6 -31,-14l-2 -3 -1 4c0,0 -4,33 -37,43 -8,2 -19,3 -21,3l0 0zm0 0l0 0 0 0z"/>
  </g>
  <g>
   <path id="path58" class="fil0" d="M956 431c-26,-28 -103,-22 -103,-22 9,22 -2,27 -30,34 -18,4 -25,19 -25,19 -15,-15 -38,-11 -76,-12 -53,0 -96,-27 -66,-60 -15,-7 -98,-10 -135,11 -30,17 -22,47 -6,62 19,18 48,15 48,15 0,0 -12,51 31,71 58,28 96,-11 96,-11 0,0 19,39 71,34 46,-4 50,-48 50,-48 4,8 16,18 38,14 17,-2 22,-16 22,-16 0,0 25,16 51,-5 16,-12 11,-36 11,-36 34,-4 38,-33 23,-50l0 0zm-2 22c-5,18 -29,18 -29,18 0,0 13,22 -9,35 -24,15 -48,0 -48,0 0,0 -5,14 -23,17 -27,3 -37,-17 -37,-17 0,0 -7,39 -48,45 -48,6 -67,-31 -67,-31 -18,12 -55,27 -92,8 -34,-18 -21,-62 -21,-62 -69,-1 -69,-42 -47,-58 34,-24 103,-17 103,-17 -14,24 -4,54 38,66 33,10 66,7 95,6 30,0 35,21 35,21 -3,-33 21,-33 46,-41 25,-9 14,-29 14,-29 56,-1 97,15 90,39l0 0 0 0zm0 0l0 0 0 0z"/>
  </g>
  <g>
   <path id="path60" class="fil0" d="M786 104c-14,-10 -34,-22 -82,-18 -101,9 -127,81 -117,139 4,22 16,35 16,35l12 -17c0,0 -26,-32 -6,-80 15,-36 52,-68 113,-68 46,0 78,21 84,45 0,0 1,-20 -20,-36l0 0zm0 0l0 0 0 0z"/>
  </g>
  <g>
   <path id="path62" class="fil0" d="M797 120c0,0 18,-16 46,-11 33,7 50,45 35,74 -14,30 -54,31 -73,0 0,0 -16,32 -60,35 -60,4 -78,18 -84,40 -8,27 15,47 30,44 0,0 -15,6 -26,-2 -24,-16 -19,-41 -13,-53 11,-24 42,-35 67,-37 32,-3 74,-4 86,-55 0,0 2,36 37,35 29,0 38,-29 29,-51 -10,-21 -45,-36 -73,-17l-1 -2 0 0zm0 0l0 0 0 0z"/>
  </g>
  <g>
   <path id="path64" class="fil0" d="M641 240c0,0 -5,-7 -18,-6 -15,1 -23,21 -23,37 1,18 10,37 29,41 0,0 -11,41 12,76 15,25 60,51 120,34 0,0 15,14 35,13 18,-2 26,-14 26,-14 0,0 24,5 50,-17 26,-21 42,-58 3,-107 -33,-42 -20,-94 -18,-96 3,-3 -6,-1 -6,-1 0,0 -11,41 0,66 11,26 37,51 40,81 2,25 -16,68 -68,66l2 -9c0,0 -5,22 -31,21 -27,-1 -42,-21 -42,-21l6 12c0,0 -39,9 -74,-5 -35,-14 -62,-61 -42,-108 0,0 -15,-1 -23,-15 -10,-18 -4,-36 3,-43 11,-9 19,-5 19,-5l0 0zm0 0l0 0 0 0z"/>
  </g>
  <path id="path66" class="fil0" d="M746 269c0,6 -4,11 -10,11 -6,0 -10,-5 -10,-11 0,-7 4,-12 10,-12 6,0 10,5 10,12z"/>
  <path id="path68" class="fil1" d="M744 261c0,3 -1,5 -4,5 -2,0 -4,-2 -4,-5 0,-2 2,-4 4,-4 3,0 4,2 4,4z"/>
  <path id="path70" class="fil0" d="M853 265c0,7 -5,12 -10,12 -6,0 -10,-5 -10,-12 0,-6 4,-11 10,-11 5,0 10,5 10,11z"/>
  <path id="path72" class="fil1" d="M851 258c0,2 -2,4 -4,4 -2,0 -4,-2 -4,-4 0,-3 2,-5 4,-5 2,0 4,2 4,5z"/>
  <g>
   <path id="path74" class="fil0" d="M747 359c23,19 59,30 87,-5 -12,31 -51,44 -91,11 0,0 -6,2 -10,1 7,-2 13,-7 15,-16 1,3 0,6 -1,9l0 0zm0 0l0 0 0 0z"/>
  </g>
  <path id="path76" class="fil0" d="M597 415c0,0 -25,-3 -37,5 -11,7 -3,21 13,18 17,-3 24,-23 24,-23z"/>
  <path id="path78" class="fil0" d="M651 467c0,0 -29,7 -33,25 -5,18 19,28 29,10 7,-11 4,-35 4,-35z"/>
  <g>
   <path id="path80" class="fil0" d="M741 485c0,0 -9,16 -10,25 0,10 6,23 20,16 12,-6 0,-30 -10,-41l0 0zm0 0l0 0 0 0z"/>
  </g>
  <path id="path82" class="fil0" d="M834 476c0,0 -11,33 13,29 23,-4 -13,-29 -13,-29z"/>
  <path id="path84" class="fil0" d="M871 458c0,0 8,30 23,20 12,-8 -12,-19 -23,-20z"/>
  <path id="path86" class="fil0" d="M887 428c0,0 26,22 35,12 9,-10 -26,-13 -35,-12z"/>
  <g>
   <path id="path88" class="fil0" d="M810 342c-4,0 -9,-2 -15,-4 0,0 -12,3 -16,-6 -3,-8 2,-15 8,-18 -4,4 -8,14 3,17 3,1 7,-1 7,-1 0,0 7,4 14,5 9,0 15,-3 18,-13 0,0 2,10 -4,16 -4,3 -9,5 -15,4l0 0zm0 0l0 0 0 0z"/>
  </g>
  <g>
   <path id="path90" class="fil0" d="M787 275c4,-5 9,-8 16,-7 5,0 9,3 12,6l1 -2 2 -5c-4,-3 -9,-6 -15,-6 -7,-1 -14,2 -18,7l2 7 0 0zm0 0l0 0 0 0z"/>
  </g>
  <path id="path92" class="fil0" d="M746 232c-23,0 -42,19 -42,43 0,24 19,43 42,43 24,0 43,-19 43,-43 0,-24 -19,-43 -43,-43zm2 79c-20,0 -36,-16 -36,-37 0,-20 16,-37 36,-37 20,0 37,17 37,37 0,21 -17,37 -37,37l0 0z"/>
  <path id="path94" class="fil0" d="M849 228c-20,0 -36,17 -36,39 0,22 16,40 36,40 20,0 36,-18 36,-40 0,-22 -16,-39 -36,-39zm2 73c-18,0 -32,-15 -32,-34 0,-19 14,-34 32,-34 17,0 31,15 31,34 0,19 -14,34 -31,34l0 0z"/>
  <g>
   <path id="path96" class="fil0" d="M717 50c0,0 -13,-16 -35,-12 -33,6 -40,43 -14,61 6,-2 -6,9 -15,12 0,0 -27,-18 -14,-49 17,-40 68,-34 78,-12l0 0zm0 0l0 0 0 0z"/>
  </g>
  <path id="path98" class="fil0" d="M742 45c11,13 8,31 -9,38 -8,4 -38,6 -41,8 2,6 46,1 49,3 6,0 16,-11 17,-17 12,-35 -27,-48 -45,-38 0,0 19,-6 29,6z"/>
  <path id="path100" class="fil1" d="M882 267c0,19 -14,34 -31,34 -17,0 -32,-15 -32,-34 0,-19 15,-34 32,-34 17,0 31,15 31,34z"/>
  <path id="path102" class="fil0" d="M853 265c0,7 -5,12 -10,12 -6,0 -10,-5 -10,-12 0,-6 4,-11 10,-11 5,0 10,5 10,11z"/>
  <path id="path104" class="fil1" d="M851 258c0,2 -2,4 -4,4 -2,0 -4,-2 -4,-4 0,-3 2,-5 4,-5 2,0 4,2 4,5z"/>
  <path id="path106" class="fil1" d="M744 261c0,3 -1,5 -4,5 -2,0 -4,-2 -4,-5 0,-2 2,-4 4,-4 3,0 4,2 4,4z"/>
  <path id="path108" class="fil4" d="M1417 741l3 0c3,0 5,-1 5,-3 0,-2 -2,-3 -5,-3 -1,0 -2,0 -3,0l0 6zm0 13l-5 0 0 -22c2,-1 5,-1 9,-1 4,0 6,1 7,2 1,0 2,2 2,4 0,3 -1,5 -4,6l0 0c2,1 3,2 4,5 1,4 1,5 1,6l-5 0c-1,-1 -1,-3 -2,-6 0,-2 -2,-3 -4,-3l-3 0 0 9zm-13 -12c0,10 7,18 17,18 10,0 17,-8 17,-18 0,-10 -7,-18 -17,-18 -10,0 -17,8 -17,18l0 0zm39 0c0,13 -9,22 -22,22 -13,0 -23,-9 -23,-22 0,-12 10,-22 23,-22 13,0 22,10 22,22z"/>
 </g>
</svg>
