<?xml version="1.0" encoding="UTF-8"?>
<!DOCTYPE svg PUBLIC "-//W3C//DTD SVG 1.1//EN" "http://www.w3.org/Graphics/SVG/1.1/DTD/svg11.dtd">
<!-- Creator: CorelDRAW X7 -->
<svg xmlns="http://www.w3.org/2000/svg" xml:space="preserve" width="210mm" height="297mm" version="1.1" style="shape-rendering:geometricPrecision; text-rendering:geometricPrecision; image-rendering:optimizeQuality; fill-rule:evenodd; clip-rule:evenodd"
viewBox="0 0 21000 29700"
 xmlns:xlink="http://www.w3.org/1999/xlink"
 xmlns:dc="http://purl.org/dc/elements/1.1/"
 xmlns:cc="http://creativecommons.org/ns#"
 xmlns:rdf="http://www.w3.org/1999/02/22-rdf-syntax-ns#"
 xmlns:svg="http://www.w3.org/2000/svg">
 <defs>
  <style type="text/css">
   <![CDATA[
    .fil0 {fill:#21317D}
    .fil1 {fill:white}
    .fil4 {fill:#21317D;fill-rule:nonzero}
    .fil3 {fill:url(#id0)}
    .fil2 {fill:url(#id1)}
   ]]>
  </style>
  <radialGradient id="id0" gradientUnits="userSpaceOnUse" gradientTransform="matrix(0.580975 -0 -0 -0.582169 4323 20959)" cx="10315.8" cy="13246.9" r="2262.99" fx="10315.8" fy="13246.9">
   <stop offset="0" style="stop-opacity:1; stop-color:#FFF200"/>
   <stop offset="1" style="stop-opacity:1; stop-color:#FAB20B"/>
  </radialGradient>
  <radialGradient id="id1" gradientUnits="userSpaceOnUse" gradientTransform="matrix(1.01593 -0 -0 -1.01593 -164 17505)" cx="10284.7" cy="8683.13" r="2386.97" fx="10284.7" fy="8683.13">
   <stop offset="0" style="stop-opacity:1; stop-color:#7FD6F7"/>
   <stop offset="0.368627" style="stop-opacity:1; stop-color:#7FD6F7"/>
   <stop offset="1" style="stop-opacity:1; stop-color:#2056AE"/>
  </radialGradient>
 </defs>
 <g id="Camada_x0020_1">
  <metadata id="CorelCorpID_0Corel-Layer"/>
  <g id="g10">
   <g id="g12">
    <g>
     <path id="path14" class="fil0" d="M16862 18579c-2,0 -4,1 -6,1 131,-196 344,-557 344,-839 0,-124 -146,-428 -564,-436 -72,-1 -139,32 -203,95 -85,-55 -192,-95 -303,-95 -580,0 -981,602 -1087,1047 -66,76 -130,145 -186,199 7,-49 16,-100 25,-143 72,-84 281,-357 281,-649 0,-79 -19,-147 -52,-203 263,-51 444,-247 459,-471 10,-153 -161,-453 -506,-450 -301,3 -566,224 -566,479 0,79 28,151 75,209 -304,101 -505,595 -592,1001 -67,76 -125,137 -175,186 102,-195 230,-457 235,-751 4,-317 -308,-466 -477,-454 -178,12 -372,94 -581,279 -27,-74 -141,-281 -392,-279 -274,3 -477,163 -545,429 -30,14 -60,27 -90,38 -34,-95 -84,-174 -148,-234 110,-20 170,-124 175,-226 8,-183 -279,-570 -543,-599 -133,-15 -597,304 -597,536 0,85 55,155 132,182 3,5 6,11 9,15 -45,43 -83,92 -108,146 -19,-6 -40,-10 -62,-10 -118,0 -530,308 -654,738 -50,-83 -105,-165 -159,-247 -235,-353 -457,-687 -294,-972 110,-191 279,-231 401,-231 59,0 121,10 172,29 106,40 145,72 187,107l8 7c31,25 77,64 140,64 48,0 92,-23 120,-61 44,-58 59,-132 43,-208 -23,-110 -170,-301 -375,-420 -181,-105 -406,-159 -647,-159 -516,0 -980,242 -1181,615 -188,342 -129,746 166,1139 121,161 243,300 351,423 200,228 376,433 377,574 0,12 -10,44 -27,57 -13,11 -71,49 -203,35 -685,-73 -750,-429 -891,-403 -115,22 -180,115 -209,160 -67,106 -72,227 -8,337 236,407 857,547 1233,547 521,0 877,-227 978,-613 160,173 333,229 547,229 386,0 690,-215 881,-503 0,4 0,7 0,11 21,465 396,492 448,492 325,0 481,-323 593,-585 25,497 422,585 582,585 229,0 391,-58 628,-273 131,211 334,273 494,273 225,0 431,-98 645,-285 179,223 381,285 588,285 185,0 355,-55 501,-162 2,2 4,3 6,5 86,99 209,157 345,157 370,0 542,-272 542,-456 0,-112 -97,-274 -280,-294l0 0zm-5922 -192c0,-97 31,-191 65,-274 25,83 148,185 313,222 -80,127 -197,227 -331,227 -7,0 -13,-1 -20,-2 -21,-50 -27,-114 -27,-173l0 0zm4956 242c0,-10 -1,-21 -1,-34 0,-120 49,-263 94,-344 25,-44 72,-120 134,-180 -55,192 -94,380 -107,498 -39,37 -78,56 -120,60l0 0 0 0zm0 0l0 0 0 0z"/>
    </g>
    <g>
     <path id="path16" class="fil0" d="M7438 17305c-64,-2 -139,32 -203,95 -85,-54 -192,-95 -302,-95 -581,0 -982,602 -1088,1047 -65,76 -130,146 -186,199 7,-49 16,-100 26,-143 71,-84 280,-357 280,-649 0,-79 -18,-147 -52,-203 263,-51 459,-247 459,-471 0,-131 -82,-285 -296,-398 204,-46 364,-92 421,-130 103,-70 130,-201 91,-314 -19,-53 -95,-233 -379,-217 -439,24 -1859,71 -2681,86 -130,2 -210,96 -228,219 -17,117 1,237 155,366 113,80 211,104 344,140 106,27 263,38 474,36 -126,301 -311,717 -479,1097 -199,452 -372,843 -417,969 -43,118 -28,255 43,352 148,204 441,294 585,299 219,8 293,-134 343,-243 77,-167 236,-552 430,-997 -29,142 -45,273 -44,370 5,524 423,609 583,609 225,0 431,-98 645,-285 151,223 382,285 588,285 185,0 355,-55 501,-162 2,2 4,3 6,4 86,100 209,158 346,158 369,0 546,-272 541,-456 -6,-222 -221,-294 -280,-294 -2,0 -4,1 -6,1 131,-196 331,-558 344,-839 7,-144 -130,-419 -564,-436l0 0zm-739 1324c-1,-10 -2,-21 -2,-34 0,-120 49,-263 94,-344 25,-44 73,-120 134,-180 -55,192 -94,380 -107,498 -39,37 -78,56 -119,60zm-1396 -1488c5,68 30,131 72,182 -78,26 -150,78 -214,148 50,-115 97,-225 142,-330l0 0 0 0zm0 0l0 0 0 0z"/>
    </g>
    <path id="path18" class="fil1" d="M11767 17887c179,-8 429,-117 617,-277 14,-13 33,-17 48,-17 39,0 77,30 77,69 0,22 -10,43 -38,65 0,0 -289,264 -718,364 -63,460 -429,962 -973,962 -342,0 -529,-195 -529,-546 0,-485 500,-854 563,-854 34,0 48,13 48,39 0,87 -159,299 -159,546 0,222 87,395 284,395 280,0 477,-282 540,-520l-29 0c-308,0 -530,-200 -530,-425 0,-156 183,-312 356,-312 256,0 429,182 443,511l0 0zm-361 -190c-38,0 -72,26 -72,73 0,74 87,130 226,139 -5,-147 -91,-212 -154,-212l0 0z"/>
    <g>
     <path id="path20" class="fil1" d="M14580 17801c38,0 72,26 72,60 0,18 -5,39 -24,61 -838,997 -997,1131 -1344,1131 -303,0 -346,-234 -346,-390 0,-321 260,-663 260,-780 0,-26 -10,-39 -44,-39 -120,0 -433,390 -544,641 -106,252 -236,568 -501,568 -125,0 -211,-78 -211,-273 0,-312 158,-390 259,-1014 44,-273 232,-390 434,-390 130,0 183,78 183,217 0,121 -39,286 -111,485 246,-329 592,-702 901,-702 159,0 240,91 240,234 0,351 -216,663 -303,858 -34,74 -48,139 -48,187 0,82 38,125 91,125 140,0 439,-277 954,-936 24,-30 53,-43 82,-43l0 0zm0 0l0 0 0 0z"/>
    </g>
    <path id="path22" class="fil1" d="M15649 17801c38,0 72,21 72,60 0,18 -10,39 -24,61 -564,793 -905,1131 -1291,1131 -303,0 -346,-234 -346,-390 0,-446 279,-1287 626,-1287 159,0 240,91 240,234 0,299 -269,589 -269,589 -24,96 -48,256 -48,330 0,121 33,195 101,195 178,0 554,-481 857,-880 24,-30 53,-43 82,-43l0 0zm-1023 -744c0,-186 207,-351 438,-351 164,0 270,104 270,230 0,186 -203,338 -424,355 -164,0 -284,-103 -284,-234l0 0z"/>
    <g>
     <path id="path24" class="fil1" d="M16862 18650c29,0 43,35 43,74 0,104 -110,329 -414,329 -159,0 -274,-108 -317,-234 -135,143 -313,234 -535,234 -337,0 -496,-195 -496,-546 0,-390 400,-1131 987,-1131 125,0 256,74 323,147 58,-91 120,-147 183,-147 159,0 327,74 327,217 0,351 -414,897 -414,897 0,156 29,268 130,268 126,0 145,-108 183,-108l0 0zm-722 -82c5,-139 91,-529 207,-828 -53,-26 -101,-39 -149,-39 -183,0 -333,169 -429,338 -58,104 -111,269 -111,407 0,144 58,256 222,256 101,0 188,-52 260,-134l0 0 0 0zm0 0l0 0 0 0z"/>
    </g>
    <g>
     <path id="path26" class="fil1" d="M6451 17801c38,0 72,21 72,60 0,18 -9,39 -24,61 -563,793 -905,1131 -1290,1131 -304,0 -347,-234 -347,-390 0,-446 279,-1287 626,-1287 159,0 241,91 241,234 0,299 -270,589 -270,589 -24,96 -48,256 -48,330 0,121 34,195 101,195 178,0 554,-481 857,-880 24,-30 53,-43 82,-43zm-1023 -744c0,-186 207,-351 438,-351 164,0 270,104 270,230 0,186 -202,338 -424,355 -164,0 -284,-103 -284,-234l0 0 0 0zm0 0l0 0 0 0z"/>
    </g>
    <path id="path28" class="fil1" d="M7664 18650c29,0 44,35 44,74 0,104 -111,329 -414,329 -159,0 -275,-108 -318,-234 -135,143 -313,234 -535,234 -337,0 -496,-195 -496,-546 0,-390 400,-1131 988,-1131 125,0 255,74 322,147 58,-91 121,-147 183,-147 159,0 328,74 328,217 0,351 -415,897 -415,897 0,156 29,268 130,268 126,0 145,-108 183,-108l0 0zm-722 -82c5,-139 92,-529 207,-828 -53,-26 -101,-39 -149,-39 -183,0 -332,169 -429,338 -58,104 -111,269 -111,407 0,144 58,256 222,256 101,0 188,-52 260,-134l0 0z"/>
    <path id="path30" class="fil1" d="M11660 17266c-92,0 -172,-176 -258,-176 -90,0 -253,169 -358,169 -35,0 -73,-22 -73,-67 0,-140 386,-408 469,-408 99,0 306,233 306,380 0,44 -28,102 -86,102z"/>
    <g>
     <path id="path32" class="fil1" d="M6358 16164c-25,-47 -81,-72 -139,-68 -452,36 -1891,73 -2689,87 -56,1 -102,34 -103,94 -3,140 116,240 294,288 159,39 455,39 783,19 -186,494 -911,2074 -1007,2341 -114,318 392,458 531,356 53,-38 77,-92 93,-130 135,-335 1146,-2616 1146,-2616 518,-74 973,-182 1050,-233 49,-33 66,-89 41,-138l0 0zm0 0l0 0 0 0z"/>
    </g>
    <g>
     <path id="path34" class="fil1" d="M10216 16631c-201,-74 -544,-61 -729,258 -356,623 708,1337 644,1920 -120,1092 -2200,531 -1884,32 44,-70 101,-139 172,-51 281,346 903,444 1101,292 57,-44 81,-124 75,-173 -35,-309 -400,-590 -752,-1059 -164,-219 -373,-607 -157,-1001 292,-539 1151,-694 1654,-407 146,83 258,250 185,349 -18,24 -48,-1 -77,-25 -48,-39 -98,-85 -232,-135l0 0zm0 0l0 0 0 0z"/>
    </g>
    <path id="path36" class="fil0" d="M12945 13457c0,1469 -1191,2660 -2660,2660 -1470,0 -2660,-1191 -2660,-2660 0,-1469 1190,-2660 2660,-2660 1469,0 2660,1191 2660,2660z"/>
    <path id="path46" class="fil2" d="M7898 13457c0,1319 1068,2387 2387,2387l0 0c1318,0 2387,-1068 2387,-2387l0 0c0,-1318 -1069,-2387 -2387,-2387 -1319,0 -2387,1069 -2387,2387l0 0z"/>
    <path id="path54" class="fil3" d="M11537 14532c-362,138 -907,230 -1104,270l0 0c-197,39 -1898,-499 -1898,-499l0 0 -482 4c348,887 1188,1534 2212,1534 1103,0 1988,-692 2296,-1677l0 0c-12,-6 27,-44 16,-47l0 0c-13,-4 -28,-5 -44,-5l0 0c-206,0 -661,293 -996,420l0 0m0 0l0 0 0 0z"/>
    <g>
     <path id="path56" class="fil1" d="M10509 15572c-363,0 -599,-313 -602,-316l-9 -10 -17 -27c4,-17 -218,205 -563,205 -148,0 -306,-36 -428,-106 -404,-235 -285,-658 -278,-679 0,0 12,-36 18,-51 0,-4 -41,5 -41,5 0,0 -33,2 -43,2 -53,0 -277,-11 -403,-121 -98,-85 -181,-221 -165,-381 11,-107 75,-208 177,-260 310,-157 687,-154 840,-160 99,-1 389,17 389,17 -233,-461 -89,-804 -88,-808l-61 -18 -47 -24c-142,-54 -218,-252 -206,-377 4,-34 11,-75 26,-130l11 -44 -84 -162c-11,-31 -81,-156 -75,-381 13,-492 220,-828 716,-1063 0,0 -15,-7 -41,-36 -22,-26 -51,-70 -51,-70 -38,-64 -100,-332 82,-470 275,-210 487,-28 487,-28 0,0 348,-214 472,196 40,132 -108,286 -108,286 0,0 376,93 597,335 7,-6 296,-167 506,-60 152,77 222,127 279,266 55,135 95,260 23,401 -58,113 -110,165 -251,231l-7 1 -3 7c-20,56 -43,156 -43,273l0 13 13 0c190,5 362,178 362,394 0,85 -18,152 -77,243l-12 16 -48 49c209,214 262,430 256,582 -8,203 -85,365 -227,488 -18,16 -57,40 -77,54l-118 67 174 -8c0,0 167,9 168,7 104,9 462,16 669,217 45,37 115,192 70,325 -34,102 -97,153 -250,180 -8,0 -16,0 -25,-1l-17 -1 3 17c1,3 56,193 -98,314 -44,36 -108,91 -278,112 -154,19 -253,-17 -255,-18l-13 -4 -5 12c0,2 -61,106 -181,143 -11,4 -77,14 -90,14 -133,0 -252,-66 -314,-147l-26 -31 -9 37c-1,5 -45,348 -389,451 -77,27 -195,32 -215,32l0 0zm0 0l0 0 0 0z"/>
    </g>
    <g>
     <path id="path58" class="fil0" d="M12639 14130c-272,-296 -1073,-236 -1073,-236 101,237 -17,289 -308,359 -182,43 -259,201 -259,201 -156,-161 -399,-119 -788,-125 -549,-8 -1002,-289 -684,-623 -158,-76 -1023,-109 -1406,105 -315,176 -228,493 -63,651 197,188 501,157 501,157 0,0 -123,525 315,737 606,292 1003,-112 1003,-112 0,0 196,402 742,348 470,-45 517,-502 517,-502 39,84 167,190 397,155 175,-27 223,-170 223,-170 0,0 257,160 529,-50 164,-126 120,-373 120,-373 349,-49 393,-350 234,-522l0 0zm-17 230c-50,188 -300,178 -300,178 0,0 129,237 -98,372 -251,149 -498,-2 -498,-2 0,0 -48,148 -236,172 -283,36 -389,-177 -389,-177 0,0 -67,414 -496,471 -505,67 -692,-326 -692,-326 -193,125 -576,281 -957,89 -363,-184 -221,-649 -221,-649 -719,-8 -716,-429 -486,-596 347,-251 1069,-177 1069,-177 -144,247 -48,562 388,686 350,100 690,65 994,60 305,-5 356,219 356,219 -30,-342 219,-340 487,-432 256,-87 141,-297 141,-297 587,-10 1007,152 938,409l0 0 0 0zm0 0l0 0 0 0z"/>
    </g>
    <g>
     <path id="path60" class="fil0" d="M10876 10729c-143,-108 -351,-224 -853,-182 -1056,88 -1322,834 -1213,1443 40,223 164,358 164,358l122 -176c0,0 -269,-328 -65,-826 157,-378 545,-708 1183,-708 476,0 811,214 867,468 0,0 16,-208 -205,-377l0 0zm0 0l0 0 0 0z"/>
    </g>
    <g>
     <path id="path62" class="fil0" d="M10986 10899c0,0 187,-172 486,-113 336,66 513,467 363,769 -151,302 -571,319 -767,-7 0,0 -160,334 -622,363 -621,40 -809,189 -875,423 -80,280 161,481 312,453 0,0 -150,59 -271,-23 -250,-169 -191,-419 -133,-547 114,-248 442,-362 696,-388 334,-33 773,-38 897,-565 0,0 20,369 379,362 303,-6 398,-308 302,-531 -96,-224 -463,-381 -752,-179l-15 -17 0 0zm0 0l0 0 0 0z"/>
    </g>
    <g>
     <path id="path64" class="fil0" d="M9363 12138c0,0 -48,-63 -179,-57 -161,7 -247,214 -240,388 8,185 98,378 301,426 0,0 -120,418 117,791 160,251 625,523 1250,351 0,0 160,145 361,130 191,-15 275,-146 275,-146 0,0 253,56 520,-170 268,-226 436,-607 32,-1118 -341,-431 -204,-973 -183,-998 21,-25 -66,-5 -66,-5 0,0 -117,425 -3,688 113,263 389,528 414,840 20,258 -159,707 -700,682l16 -95c0,0 -51,234 -325,224 -274,-10 -429,-217 -429,-217l55 122c0,0 -402,88 -768,-55 -366,-142 -645,-631 -433,-1123 0,0 -159,-12 -238,-149 -110,-192 -48,-376 35,-451 105,-96 188,-58 188,-58l0 0zm0 0l0 0 0 0z"/>
    </g>
    <path id="path66" class="fil0" d="M10458 12441c0,66 -46,120 -104,120 -57,0 -103,-54 -103,-120 0,-66 46,-120 103,-120 58,0 104,54 104,120z"/>
    <path id="path68" class="fil1" d="M10442 12364c0,26 -20,47 -43,47 -23,0 -43,-21 -43,-47 0,-26 20,-48 43,-48 23,0 43,22 43,48z"/>
    <path id="path70" class="fil0" d="M11565 12404c0,66 -46,120 -102,120 -58,0 -104,-54 -104,-120 0,-66 46,-120 104,-120 56,0 102,54 102,120z"/>
    <path id="path72" class="fil1" d="M11549 12326c0,26 -19,47 -42,47 -24,0 -43,-21 -43,-47 0,-26 19,-47 43,-47 23,0 42,21 42,47z"/>
    <g>
     <path id="path74" class="fil0" d="M10466 13383c238,198 620,303 906,-51 -121,322 -532,451 -943,108 0,0 -60,26 -107,16 71,-20 134,-80 155,-170 8,31 3,63 -11,97l0 0zm0 0l0 0 0 0z"/>
    </g>
    <path id="path76" class="fil0" d="M8905 13962c0,0 -255,-29 -382,53 -117,75 -34,217 138,188 172,-30 244,-241 244,-241z"/>
    <path id="path78" class="fil0" d="M9472 14506c0,0 -305,73 -349,260 -44,187 202,287 310,103 69,-116 39,-363 39,-363z"/>
    <g>
     <path id="path80" class="fil0" d="M10403 14688c0,0 -93,162 -98,265 -5,104 62,236 207,163 128,-64 0,-315 -109,-428l0 0zm0 0l0 0 0 0z"/>
    </g>
    <path id="path82" class="fil0" d="M11374 14591c0,0 -110,346 131,307 241,-39 -131,-307 -131,-307z"/>
    <path id="path84" class="fil0" d="M11757 14405c0,0 89,313 235,211 126,-88 -125,-197 -235,-211z"/>
    <path id="path86" class="fil0" d="M11920 14100c0,0 275,222 369,118 93,-103 -270,-132 -369,-118z"/>
    <g>
     <path id="path88" class="fil0" d="M11128 13208c-47,-3 -95,-22 -156,-49 -9,4 -126,31 -169,-63 -35,-75 15,-153 77,-184 -34,39 -77,148 30,175 32,8 80,-5 80,-5 0,0 70,42 147,46 93,5 154,-32 183,-137 0,0 24,103 -46,169 -37,35 -86,51 -146,48l0 0zm0 0l0 0 0 0z"/>
    </g>
    <g>
     <path id="path90" class="fil0" d="M10889 12505c35,-48 94,-78 157,-74 52,4 96,29 127,67l14 -27 19 -43c-41,-38 -95,-64 -155,-68 -74,-5 -142,23 -191,71l29 74 0 0zm0 0l0 0 0 0z"/>
    </g>
    <path id="path92" class="fil0" d="M10459 12057c-243,0 -440,201 -440,449 0,249 197,450 440,450 244,0 441,-201 441,-450 0,-248 -197,-449 -441,-449zm21 825c-209,0 -379,-171 -379,-383 0,-211 170,-383 379,-383 210,0 380,172 380,383 0,212 -170,383 -380,383l0 0z"/>
    <path id="path94" class="fil0" d="M11531 12014c-206,0 -374,184 -374,411 0,227 168,410 374,410 207,0 375,-183 375,-410 0,-227 -168,-411 -375,-411zm15 759c-181,0 -328,-157 -328,-350 0,-192 147,-349 328,-349 182,0 329,157 329,349 0,193 -147,350 -329,350l0 0z"/>
    <g>
     <path id="path96" class="fil0" d="M10154 10170c0,0 -132,-170 -363,-129 -344,61 -412,452 -142,637 65,-20 -61,93 -159,127 0,0 -282,-194 -147,-511 178,-421 708,-357 811,-124l0 0zm0 0l0 0 0 0z"/>
    </g>
    <path id="path98" class="fil0" d="M10418 10119c109,134 86,321 -97,394 -85,35 -391,58 -421,84 22,59 473,9 506,29 66,-4 162,-119 180,-176 118,-366 -284,-501 -470,-401 0,0 200,-56 302,70z"/>
    <path id="path100" class="fil1" d="M11876 12422c0,194 -147,351 -327,351 -181,0 -328,-157 -328,-351 0,-194 147,-351 328,-351 180,0 327,157 327,351z"/>
    <path id="path102" class="fil0" d="M11565 12404c0,66 -46,120 -102,120 -58,0 -104,-54 -104,-120 0,-66 46,-120 104,-120 56,0 102,54 102,120z"/>
    <path id="path104" class="fil1" d="M11549 12326c0,26 -19,47 -42,47 -24,0 -43,-21 -43,-47 0,-26 19,-47 43,-47 23,0 42,21 42,47z"/>
    <path id="path106" class="fil1" d="M10442 12364c0,26 -20,47 -43,47 -23,0 -43,-21 -43,-47 0,-26 20,-48 43,-48 23,0 43,22 43,48z"/>
    <path id="path108" class="fil4" d="M17435 17351l25 0c30,0 54,-10 54,-34 0,-21 -16,-35 -49,-35 -14,0 -24,2 -30,3l0 66zm-1 130l-53 0 0 -229c21,-5 50,-7 88,-7 43,0 63,7 80,16 12,10 22,28 22,51 0,25 -20,45 -48,53l0 3c23,8 35,25 42,56 7,35 12,49 17,57l-57 0c-7,-8 -11,-29 -18,-56 -5,-25 -19,-36 -48,-36l-25 0 0 92zm-142 -120c0,102 76,183 180,183 100,0 175,-81 175,-182 0,-102 -75,-185 -177,-185 -102,0 -178,83 -178,184l0 0zm413 0c0,130 -102,232 -235,232 -131,0 -236,-102 -236,-232 0,-128 105,-230 236,-230 133,0 235,102 235,230z"/>
   </g>
  </g>
 </g>
</svg>
